<svg width="48" height="48" viewBox="0 0 48 48" fill="none" xmlns="http://www.w3.org/2000/svg">
<path d="M5.7832 11.2478C4.81548 10.263 3.23263 10.2491 2.2478 11.2168C1.26297 12.1845 1.24909 13.7674 2.2168 14.7522L5.7832 11.2478ZM18.4218 27.6769L16.6386 29.4291C17.1042 29.9029 17.7392 30.172 18.4034 30.1769C19.0677 30.1817 19.7066 29.9221 20.1791 29.4551L18.4218 27.6769ZM27.2476 18.9553L29.0305 17.2029C28.5649 16.7292 27.93 16.4602 27.2658 16.4554C26.6016 16.4505 25.9628 16.7102 25.4903 17.1771L27.2476 18.9553ZM2.2168 14.7522L16.6386 29.4291L20.205 25.9247L5.7832 11.2478L2.2168 14.7522ZM20.1791 29.4551L29.0048 20.7335L25.4903 17.1771L16.6646 25.8987L20.1791 29.4551ZM25.4646 20.7077L42.217 37.7524L45.783 34.2476L29.0305 17.2029L25.4646 20.7077Z" fill="#212121"/>
<path d="M44 25V36H33" stroke="#212121" stroke-width="5" stroke-linecap="round" stroke-linejoin="round"/>
</svg>
