<svg width="48" height="48" viewBox="0 0 48 48" fill="none" xmlns="http://www.w3.org/2000/svg">
<path d="M5.7832 37.7522C4.81548 38.737 3.23263 38.7509 2.2478 37.7832C1.26297 36.8155 1.24909 35.2326 2.2168 34.2478L5.7832 37.7522ZM18.4218 21.3231L16.6386 19.5709C17.1042 19.0971 17.7392 18.828 18.4034 18.8231C19.0677 18.8183 19.7066 19.0779 20.1791 19.5449L18.4218 21.3231ZM27.2476 30.0447L29.0305 31.7971C28.5649 32.2708 27.93 32.5398 27.2658 32.5446C26.6016 32.5495 25.9628 32.2898 25.4903 31.8229L27.2476 30.0447ZM2.2168 34.2478L16.6386 19.5709L20.205 23.0753L5.7832 37.7522L2.2168 34.2478ZM20.1791 19.5449L29.0048 28.2665L25.4903 31.8229L16.6646 23.1013L20.1791 19.5449ZM25.4646 28.2923L42.217 11.2476L45.783 14.7524L29.0305 31.7971L25.4646 28.2923Z" fill="#212121"/>
<path d="M44 24V13H33" stroke="#212121" stroke-width="5" stroke-linecap="round" stroke-linejoin="round"/>
</svg>
